# xmcd CD database file
#
# Track frame offsets:
#	150
#	16554
#	33181
#	48408
#	70554
#	88189
#	105320
#	121349
#	138426
#
# Disc length: 2073 seconds
#
# Revision: 0
# Processed by: cddbd v1.5.2PL0 Copyright (c) Steve Scherf et al.
# Submitted via: CDex 1.51
#
DISCID=64081709
DTITLE=Ron Fattorusso - Radio Edits And More
DYEAR=2007
DGENRE=Jazz
TTITLE0=Sands Of Time (radio edit)
TTITLE1=Shuffle Bop (radio edit)
TTITLE2=Going With The Grain (radio edit)
TTITLE3=No Es Facil (Salsa Mix)
TTITLE4=No Es Facil (radio edit)
TTITLE5=Up All Night (radio edit)
TTITLE6=Grover, Thanks (radio edit)
TTITLE7=Jamaican Blue (radio edit)
TTITLE8=I Know You're There (radio edit)
EXTD=YEAR: 2007
EXTT0=
EXTT1=
EXTT2=
EXTT3=
EXTT4=
EXTT5=
EXTT6=
EXTT7=
EXTT8=
PLAYORDER=
